<svg xmlns="http://www.w3.org/2000/svg" height="1200" width="1600" version="1.1" xmlns:xlink="http://www.w3.org/1999/xlink" xmlns:svgjs="http://svgjs.com/svgjs"><rect fill="#fff" width="1600" height="1200"></rect><g><path d="M1065.28 625.17C1072.38 625.15 1079.18 622.34 1084.2 617.31 1089.21 612.3 1092.02 605.51 1092.04 598.42V244.9C1092.02 237.81 1089.21 231 1084.2 225.99 1079.18 220.98 1072.38 218.15 1065.28 218.15L711.91 218.15C704.82 218.15 698.03 220.98 693.01 225.99 687.99 231 685.17 237.81 685.16 244.9L685.16 598.27C685.17 605.37 687.99 612.16 693.01 617.17 698.03 622.2 704.82 625.01 711.91 625.03L1065.28 625.03V625.17Z" fill="#000000" opacity="0.2" stroke-width="4" stroke="none"></path><path d="M1039.44 598.46C1046.53 598.45 1053.34 595.63 1058.35 590.61 1063.36 585.6 1066.18 578.8 1066.19 571.71V218.34C1066.18 211.24 1063.36 204.44 1058.35 199.43 1053.34 194.41 1046.53 191.59 1039.44 191.59L686.06 191.59C678.97 191.59 672.18 194.41 667.17 199.43 662.14 204.44 659.33 211.24 659.31 218.34V571.71C659.33 578.8 662.14 585.6 667.17 590.61 672.18 595.63 678.97 598.45 686.06 598.46H1039.44Z" fill="#fefae0" opacity="1" stroke-width="4" stroke="none"></path><path d="M751.69 534.52L754.7 531.51C756.74 529.38 758.1 526.71 758.62 523.81 759.15 520.92 758.81 517.94 757.63 515.24 756.47 512.55 754.54 510.25 752.07 508.65 749.62 507.04 746.73 506.2 743.79 506.23 741.88 506.2 739.98 506.56 738.2 507.28 736.44 508 734.81 509.05 733.45 510.4L730.58 513.27 727.71 510.4C726.33 508.99 724.66 507.87 722.84 507.09 721.01 506.33 719.06 505.95 717.08 505.95 715.1 505.95 713.15 506.33 711.32 507.09 709.5 507.87 707.85 508.99 706.45 510.4 705.05 511.8 703.93 513.48 703.17 515.34 702.39 517.19 702 519.17 702 521.17 702 523.08 702.41 524.97 703.17 526.72 703.94 528.48 705.05 530.05 706.45 531.36L730.43 555.34 751.69 534.52Z" fill="#969696" opacity="1" stroke-width="4" stroke="none"></path><path d="M915.38 510.3L944.28 396.24 781.12 396.2 809.95 510.3H915.38Z" fill="#0b412d" opacity="1" stroke-width="4" stroke="none"></path><path d="M880.92 510.3L893.88 396.24 834.39 396.2 847.29 510.3H880.92Z" fill="#000000" opacity="0.2" stroke-width="4" stroke="none"></path><path d="M893.55 397.25L880.63 507.81" stroke="#000000" stroke-width="4" stroke-linecap="round" stroke-linejoin="round" opacity="1" fill="none"></path><path d="M834.68 397.25L847.6 507.81" stroke="#000000" stroke-width="4" stroke-linecap="round" stroke-linejoin="round" opacity="1" fill="none"></path><path d="M946.68 396.86C953.63 396.86 960.28 394.1 965.19 389.19 970.1 384.28 972.86 377.62 972.86 370.68 972.86 363.74 970.1 357.09 965.19 352.18 960.28 347.27 953.63 344.51 946.68 344.51H928.87C926.59 330.68 920.03 317.93 910.12 308.04 900.2 298.14 887.43 291.61 873.61 289.37 870.03 288.8 866.44 288.51 862.82 288.51 846.93 288.47 831.55 294.08 819.42 304.35 807.27 314.61 799.18 328.86 796.59 344.54L778.82 344.51C771.89 344.51 765.23 347.27 760.31 352.18 755.4 357.09 752.65 363.74 752.65 370.68 752.65 377.62 755.4 384.28 760.31 389.19 765.23 394.1 771.89 396.86 778.82 396.86L946.68 396.86Z" fill="#ffffff" opacity="1" stroke-width="4" stroke="none"></path><path d="M864.12 301.37C867.73 301.37 871.27 300.3 874.27 298.29 877.28 296.28 879.62 293.42 881 290.09 882.38 286.74 882.75 283.07 882.05 279.52 881.33 275.97 879.59 272.73 877.04 270.17 874.48 267.62 871.22 265.86 867.68 265.16 864.14 264.46 860.47 264.82 857.12 266.21 853.79 267.59 850.93 269.93 848.92 272.94 846.91 275.94 845.84 279.48 845.84 283.1 845.85 287.93 847.78 292.59 851.21 296 854.62 299.44 859.28 301.36 864.12 301.37Z" fill="#606c38" opacity="1" stroke-width="4" stroke="none"></path><path d="M796.6 344.49C797.96 335.74 801.09 327.35 805.8 319.83 810.51 312.32 816.7 305.84 824 300.79L824.51 300.44 824.53 300.9C824.54 301.1 827.18 323.04 868.71 344.54H796.59L796.6 344.49Z" fill="#969696" opacity="0.2" stroke-width="4" stroke="none"></path><path d="M929.45 344.54H882.06" stroke="#f97eb4" stroke-width="4" stroke-linecap="round" stroke-linejoin="round" opacity="1" fill="none"></path></g><g><path d="M1319.4 561.9H1006.3C981.5 561.9 961.4 582 961.4 606.8V918.5C961.4 943.3 981.5 963.4 1006.3 963.4L1319.4 963.4C1344.2 963.4 1364.3 943.3 1364.3 918.5V606.7C1364.3 582 1344.2 561.9 1319.4 561.9Z" fill="#272727" opacity="0.2" stroke-width="4" stroke="none"></path><path d="M1299.3 541.8H986.2C961.4 541.8 941.3 561.9 941.3 586.7V898.4C941.3 923.2 961.4 943.3 986.2 943.3H1299.3C1324.1 943.3 1344.2 923.2 1344.2 898.4V586.6C1344.2 561.9 1324.1 541.8 1299.3 541.8Z" fill="#ffffff" opacity="1" stroke-width="4" stroke="none"></path></g><g><path d="M290.7 192.81L203.54 222.73 291.64 233.51 192.72 323.13 308.45 296.19 308.84 372.13 359.3 321.04" stroke="#151c19" stroke-width="4" stroke-linecap="round" stroke-linejoin="round" opacity="1" fill="none"></path></g><g><path d="M381.38 381.31C381.38 375.28 381.38 366.53 381.38 356.98 381.38 334.86 382.59 309.42 382.69 301.58 382.79 285.29 394.65 282.78 403.9 275.14 411.94 268.4 415.06 264.78 429.64 264.78 430.95 264.78 432.25 257.04 433.66 257.14 456.18 258.14 473.78 264.18 481.72 279.96 484.94 286.4 485.64 296.05 486.35 306.3 486.55 309.82 486.85 313.44 487.15 317.06 487.15 317.06 495.6 320.98 495.8 324.7 495.9 326.51 494.59 329.53 487.96 334.16L487.55 334.46 487.65 335.97C488.46 347.83 489.26 360 481.22 369.25 475.39 375.98 467.45 377.49 461.81 377.49 456.99 377.49 451.86 376.38 447.03 374.47V381.91L381.28 381.81 381.38 381.31Z" fill="#cea482" opacity="1" stroke-width="4" stroke="none"></path><path d="M431.05 366.13L447.14 374.37V389.36L431.05 366.13Z" fill="#191919" opacity="0.3" stroke-width="4" stroke="none"></path><path d="M383.49 368.84C382.08 368.84 381.28 368.74 381.28 368.74 380.78 342.1 381.28 299.87 381.28 299.47 381.38 283.18 401.19 281.17 410.44 273.53 418.48 266.79 415.06 264.68 429.64 264.68 430.95 264.68 432.25 264.78 433.66 264.88 456.18 265.89 473.68 263.88 481.62 279.66 483.43 283.18 484.34 287.5 485.24 293.23 485.24 293.23 483.13 294.24 479.31 294.24 473.88 294.24 464.93 292.23 453.27 282.78 457.59 291.63 458.6 297.86 456.39 301.48 454.98 303.79 452.26 304.9 448.24 304.9 442.91 304.9 437.08 302.79 437.08 302.69 437.08 302.79 436.08 310.33 432.76 315.45 432.25 316.16 431.35 316.36 430.65 315.96 427.63 314.05 419.38 309.42 411.54 309.42 406.62 309.42 402.59 311.23 399.68 314.75 396.26 318.77 394.75 323.4 395.35 328.53 396.86 342.7 413.55 356.28 415.26 357.58 415.36 357.68 415.36 357.78 415.26 357.78 405.21 367.74 389.72 368.84 383.49 368.84Z" fill="#996b4d" opacity="1" stroke-width="4" stroke="none"></path><path d="M288.27 1022.69C286.06 993.03 287.27 963.16 291.99 934.21L352.62 868.85 388.62 934.21C383.99 952.11 380.57 967.99 378.26 981.46L346.19 1038.77 288.27 1022.69Z" fill="#cea482" opacity="1" stroke-width="4" stroke="none"></path><path d="M434.06 1022.69C428.53 987.5 426.72 961.25 427.43 933.6L476.29 856.79 521.84 933.6C520.83 951.3 520.03 966.89 519.73 981.67L491.17 1042.29 434.06 1022.69Z" fill="#cea482" opacity="1" stroke-width="4" stroke="none"></path><path d="M291.79 1052.85C290.18 1043 288.98 1032.84 288.27 1022.69H342.67L340.16 997.35C340.05 996.85 340.05 996.45 340.05 995.94 340.05 987.9 346.59 981.46 354.53 981.46H378.26C376.95 989.71 376.15 996.04 375.75 1001.57 374.64 1017.96 387.91 1028.12 399.68 1037.07 402.29 1039.08 404.71 1040.89 406.92 1042.8 410.03 1045.51 412.55 1048.02 415.06 1052.05L415.46 1052.85 414.46 1054.86H294.51L291.79 1052.85Z" fill="#1f2321" opacity="1" stroke-width="4" stroke="none"></path><path d="M294.31 1068.94C293.5 1064.92 292.9 1060.89 292.4 1056.97 292.2 1055.57 291.99 1054.26 291.79 1052.85H415.46C418.18 1057.58 419.69 1063.01 419.99 1068.94H294.31Z" fill="#6f7d76" opacity="1" stroke-width="4" stroke="none"></path><path d="M439.39 1052.85C437.28 1040.89 435.47 1031.33 434.06 1022.69H490.57L488.06 997.35C487.96 996.85 487.96 996.45 487.96 995.94 487.96 987.9 494.49 981.46 502.43 981.46H519.73C519.63 986.39 519.53 991.52 519.53 996.55 519.53 1017.86 534.51 1028.02 546.67 1036.16 549.99 1038.47 553.21 1040.58 555.72 1042.8 558.84 1045.51 564.07 1052.85 564.07 1052.85L561.25 1056.97 442.01 1054.76 439.39 1052.85Z" fill="#1f2321" opacity="1" stroke-width="4" stroke="none"></path><path d="M442.4 1068.94C442.2 1068.94 442.1 1068.84 442 1068.64 441.29 1065.22 440.69 1061.9 440.29 1058.68 439.99 1056.87 439.68 1055.06 439.48 1053.25 439.48 1053.05 439.58 1052.85 439.89 1052.85H564.06C564.16 1052.85 564.36 1052.95 564.36 1053.05 566.97 1057.78 568.48 1063.11 568.78 1068.94H442.4Z" fill="#6f7d76" opacity="1" stroke-width="4" stroke="none"></path><path d="M484.34 934.21L472.27 876.9 456.18 934.21 427.43 933.6C427.93 915.21 429.64 896.3 433.06 870.86 440.8 813.15 425.22 772.43 411.54 736.54 402.49 712.81 393.95 690.39 392.84 665.75 389.82 598.19 410.74 569.53 410.94 569.23H481.32C481.82 570.54 525.56 703.46 525.56 833.66 525.56 866.54 523.85 896.6 522.14 925.66L521.84 933.4C521.84 933.5 521.74 933.6 521.64 933.6L484.34 934.21Z" fill="#0b412d" opacity="1" stroke-width="4" stroke="none"></path><path d="M435.07 837.38C434.47 796.86 422.8 766.3 411.54 736.74 402.49 713.01 393.95 690.59 392.84 665.95 392.14 650.97 394.35 640.72 399.48 635.39 402.19 632.47 405.81 631.07 410.24 631.07 413.15 631.07 416.47 631.77 420.09 633.08 437.28 639.31 448.84 655.3 449.55 673.9 450.55 697.02 450.05 726.68 448.14 764.59 446.73 791.74 435.17 836.88 435.07 837.38Z" fill="#000000" opacity="0.3" stroke-width="4" stroke="none"></path><path d="M348.4 934.21L345.69 876.9 322.06 934.21H291.99C296.02 909.07 302.65 884.04 311.4 859.8 331.61 803.7 329.9 785.7 325.78 742.37 324.37 727.89 322.66 709.99 321.45 686.87 319.34 646.35 329.1 616.49 337.54 598.49 346.69 578.98 356.54 569.03 356.64 568.93H448.14C448.14 569.43 445.12 614.68 439.59 669.37 434.57 719.95 426.32 789.02 415.97 831.65 412.35 846.43 407.72 863.52 402.69 881.72 397.97 899.02 393.24 916.21 388.92 933.4L388.62 934.21H348.4V934.21Z" fill="#0b412d" opacity="1" stroke-width="4" stroke="none"></path><path d="M377.7 1016.6L362.78 1024.5" stroke="#75857d" stroke-width="4" stroke-linecap="round" stroke-linejoin="round" opacity="1" fill="none"></path><path d="M386.66 1026.62L373.44 1038.37" stroke="#75857d" stroke-width="4" stroke-linecap="round" stroke-linejoin="round" opacity="1" fill="none"></path><path d="M524.86 1019.02L509.47 1027.71" stroke="#75857d" stroke-width="4" stroke-linecap="round" stroke-linejoin="round" opacity="1" fill="none"></path><path d="M535.26 1028.39L522.54 1038.77" stroke="#75857d" stroke-width="4" stroke-linecap="round" stroke-linejoin="round" opacity="1" fill="none"></path><path d="M321.25 667.46C321.86 648.56 325.58 629.96 331.91 612.16L369.72 612.46 360.36 640.52C355.54 654.99 343.07 665.15 327.89 666.96L321.25 667.76V667.46 667.46Z" fill="#000000" opacity="1" stroke-width="4" stroke="none"></path><path d="M426.12 778.56C431.65 744.28 435.57 709.59 439.19 674.1" stroke="#000000" stroke-width="4" stroke-linecap="round" stroke-linejoin="round" opacity="1" fill="none"></path><path d="M657.17 526C651.24 526 644.91 524.99 638.17 522.98L612.03 464.66C625.6 458.83 639.78 455.01 648.33 452.8L649.33 452.5C658.98 449.88 669.84 448.27 676.98 448.27 683.92 448.27 687.54 449.78 687.54 452.5 687.54 456.32 682.11 461.24 674.47 464.56 674.67 464.66 690.55 477.73 689.55 485.68L679.49 495.73 678.49 519.86C678.39 520.06 671.45 526 657.17 526Z" fill="#cea482" opacity="1" stroke-width="4" stroke="none"></path><path d="M612.13 464.66C584.28 475.62 541.14 498.65 540.74 498.85 540.44 498.25 507.76 435.3 491.48 417.41 472.98 397.1 451.76 392.97 447.14 392.37V381.21H381.38L381.28 389.25C349 390.26 332.92 401.52 322.56 411.37L316.13 418.11 356.75 569.23H481.42L483.33 543.09C496.5 559.48 513.39 570.34 527.57 571.24 529.18 571.34 530.89 571.44 532.5 571.44 574.43 571.44 620.37 537.56 638.27 522.98L612.13 464.66Z" fill="#606c38" opacity="1" stroke-width="4" stroke="none"></path><path d="M356.64 569.23L332.82 479.34 355.64 482.76 406.92 569.23H356.64Z" fill="#000000" opacity="0.3" stroke-width="4" stroke="none"></path><path d="M424.51 266.59C431.45 266.59 437.08 260.96 437.08 254.02 437.08 247.08 431.45 241.45 424.51 241.45 417.56 241.45 411.94 247.08 411.94 254.02 411.94 260.96 417.56 266.59 424.51 266.59Z" fill="#6f7d76" opacity="1" stroke-width="4" stroke="none"></path><path d="M447.14 374.37C442.71 372.26 437.58 369.45 433.16 367.24" stroke="#191919" stroke-width="4" stroke-linecap="round" stroke-linejoin="round" opacity="1" fill="none"></path><path d="M424.7 338.48L414.85 331.34" stroke="#191919" stroke-width="4" stroke-linecap="round" stroke-linejoin="round" opacity="1" fill="none"></path><path d="M476.09 343.1C472.47 342 469.26 339.79 466.84 336.77" stroke="#191919" stroke-width="4" stroke-linecap="round" stroke-linejoin="round" opacity="1" fill="none"></path><path d="M473.58 319.38C475.41 319.38 476.9 317.89 476.9 316.06 476.9 314.23 475.41 312.74 473.58 312.74 471.74 312.74 470.26 314.23 470.26 316.06 470.26 317.89 471.74 319.38 473.58 319.38Z" fill="#000000" opacity="1" stroke-width="4" stroke="none"></path><path d="M380.98 336.97C380.88 325.31 381.08 313.95 381.18 306.51 381.18 303.29 381.18 300.67 381.18 298.97 381.28 282.68 386.1 270.51 395.35 262.87 403.4 256.13 414.86 252.71 429.44 252.71 430.75 252.71 432.15 252.71 433.56 252.82 456.08 253.82 473.68 263.47 481.62 279.26 483.83 283.48 485.14 288.71 485.85 296.05 485.85 296.25 485.74 296.45 485.54 296.55L432.66 317.16C432.56 317.26 430.85 316.06 430.75 315.96 429.34 314.85 421.09 309.82 411.94 309.82 408.63 309.82 405.51 310.73 403 312.44 394.25 318.17 395.56 328.63 395.86 330.74 395.86 330.94 395.76 331.14 395.56 331.24L381.08 336.77 380.98 336.97Z" fill="#1f2321" opacity="1" stroke-width="4" stroke="none"></path><path d="M509.77 287.1L432.66 317.16" stroke="#080808" stroke-width="4" stroke-linecap="round" stroke-linejoin="round" opacity="1" fill="none"></path><path d="M428.93 522.48L435.06 507.9C439.89 506.99 444.91 506.49 449.54 506.49 457.28 506.49 462.61 507.8 463.82 510.11 464.22 510.91 464.12 511.92 463.31 512.92 458.99 518.86 449.34 522.48 449.24 522.48H428.93Z" fill="#cea482" opacity="1" stroke-width="4" stroke="none"></path><path d="M409.43 653.69L446.63 442.54H677.89L640.68 653.69H409.43Z" fill="#dda15e" opacity="1" stroke-width="4" stroke="none"></path><path d="M562.06 442.54L524.76 653.69" stroke="#000000" stroke-width="4" stroke-linecap="round" stroke-linejoin="round" opacity="1" fill="none"></path><path d="M511.69 607.44H440.1L451.66 542.08H523.25L511.69 607.44Z" fill="#b5b5b5" opacity="1" stroke-width="4" stroke="none"></path><path d="M636.36 561.19H564.77L576.34 495.83H647.92L636.36 561.19Z" fill="#b5b5b5" opacity="1" stroke-width="4" stroke="none"></path><path d="M436.08 629.56H507.46" stroke="#000000" stroke-width="4" stroke-linecap="round" stroke-linejoin="round" opacity="1" fill="none"></path><path d="M464.23 467.68H535.61" stroke="#000000" stroke-width="4" stroke-linecap="round" stroke-linejoin="round" opacity="1" fill="none"></path><path d="M581.87 467.68H653.25" stroke="#000000" stroke-width="4" stroke-linecap="round" stroke-linejoin="round" opacity="1" fill="none"></path><path d="M552.71 629.56H624.09" stroke="#000000" stroke-width="4" stroke-linecap="round" stroke-linejoin="round" opacity="1" fill="none"></path><path d="M502.94 495.83H531.59" stroke="#000000" stroke-width="4" stroke-linecap="round" stroke-linejoin="round" opacity="1" fill="none"></path><path d="M460.21 495.83H488.86" stroke="#000000" stroke-width="4" stroke-linecap="round" stroke-linejoin="round" opacity="1" fill="none"></path><path d="M499.92 513.93H528.58" stroke="#000000" stroke-width="4" stroke-linecap="round" stroke-linejoin="round" opacity="1" fill="none"></path><path d="M457.19 513.93H485.85" stroke="#000000" stroke-width="4" stroke-linecap="round" stroke-linejoin="round" opacity="1" fill="none"></path><path d="M602.48 588.33H631.13" stroke="#000000" stroke-width="4" stroke-linecap="round" stroke-linejoin="round" opacity="1" fill="none"></path><path d="M559.75 588.33H588.4" stroke="#000000" stroke-width="4" stroke-linecap="round" stroke-linejoin="round" opacity="1" fill="none"></path><path d="M599.46 606.43H628.12" stroke="#000000" stroke-width="4" stroke-linecap="round" stroke-linejoin="round" opacity="1" fill="none"></path><path d="M556.73 606.43H585.38" stroke="#000000" stroke-width="4" stroke-linecap="round" stroke-linejoin="round" opacity="1" fill="none"></path><path d="M656.17 537.46C651.84 537.46 648.93 536.05 648.02 533.44 647.02 530.62 648.53 526.7 651.54 524.09 651.54 524.09 647.72 520.67 648.12 516.75 648.33 514.73 651.54 511.82 652.65 510.81 652.85 510.61 652.85 510.31 652.65 510.11 651.64 509 648.83 505.59 649.63 501.97 650.24 499.15 652.65 496.84 656.97 495.13 657.27 495.03 657.48 494.63 657.37 494.32 656.67 492.41 655.16 485.98 662.7 482.06 662.7 482.06 662.7 482.06 662.8 482.06 665.52 480.95 668.23 480.25 671.05 480.05 671.25 480.05 671.45 479.85 671.45 479.64L674.37 465.27C674.47 464.96 674.87 464.76 675.07 464.96 677.89 467.08 689.75 476.83 689.85 485.78 689.85 490.4 687.44 494.53 683.32 496.74 683.32 496.74 686.43 500.26 686.03 504.58 685.83 507.29 684.22 509.81 681.51 512.02 681.51 512.02 682.31 514.73 681.51 517.95 680.8 520.87 678.49 524.79 671.95 526.8 671.95 526.8 672.96 529.01 671.75 531.32 670.34 534.14 666.52 536.05 660.49 537.06 658.88 537.36 657.37 537.46 656.17 537.46Z" fill="#cea482" opacity="1" stroke-width="4" stroke="none"></path><path d="M683.2 496.64C674.66 497.94 665.91 497.44 657.67 494.93" stroke="#191919" stroke-width="4" stroke-linecap="round" stroke-linejoin="round" opacity="1" fill="none"></path><path d="M681.4 512.02C674.47 514.53 661.8 513.23 652.95 510.71" stroke="#191919" stroke-width="4" stroke-linecap="round" stroke-linejoin="round" opacity="1" fill="none"></path><path d="M671.35 526.9C666.73 527 656.67 526.2 651.44 524.29" stroke="#191919" stroke-width="4" stroke-linecap="round" stroke-linejoin="round" opacity="1" fill="none"></path><path d="M470.25 587.53C459.59 587.53 432.24 577.37 432.04 577.27 424.6 580.29 417.36 581.7 410.43 581.7 398.66 581.7 391.32 576.87 391.22 576.87L396.35 518.05C412.24 511.11 434.86 507.8 435.06 507.8L433.05 520.87C448.83 521.87 464.42 524.19 479.3 527.91 493.07 531.32 497.8 536.35 499.41 539.87 501.12 543.79 499.41 547.01 499.41 547.01 501.42 549.52 502.22 552.24 501.82 554.85 501.12 559.78 496.39 563.1 496.39 563.1 496.79 565.21 496.39 567.12 495.19 568.63 492.57 571.74 486.44 573.35 476.79 573.35 468.84 573.35 461.3 572.15 461.1 572.15 461.4 572.25 473.17 577.88 474.67 583.21 474.98 584.31 474.78 585.32 474.17 586.22 473.77 587.13 472.36 587.53 470.25 587.53Z" fill="#cea482" opacity="1" stroke-width="4" stroke="none"></path><path d="M358.66 483.77L333.52 513.93 396.86 517.95 391.84 577.27C391.53 577.37 355.94 587.43 321.45 587.43 287.27 587.43 265.95 577.88 258.11 559.18 236.49 507.7 307.68 425.45 322.56 411.37" fill="#606c38" opacity="1" stroke-width="4" stroke="none"></path><path d="M290.79 584.11C274.1 579.79 263.14 571.44 258.01 559.28 252.98 547.51 252.58 533.13 256.8 516.54 279.73 519.96 296.32 539.27 296.32 562.29 296.32 569.73 294.41 577.27 290.79 584.11Z" fill="#b5c289" opacity="1" stroke-width="4" stroke="none"></path><path d="M499.42 546.1C482.33 541.08 446.13 535.04 446.13 535.04" stroke="#191919" stroke-width="4" stroke-linecap="round" stroke-linejoin="round" opacity="1" fill="none"></path><path d="M496.4 561.19C490.37 559.18 442.11 550.13 442.11 550.13" stroke="#191919" stroke-width="4" stroke-linecap="round" stroke-linejoin="round" opacity="1" fill="none"></path><path d="M462.22 572.25L439.09 566.21" stroke="#191919" stroke-width="4" stroke-linecap="round" stroke-linejoin="round" opacity="1" fill="none"></path><path d="M339.85 506.39L358.66 483.77" stroke="#000000" stroke-width="4" stroke-linecap="round" stroke-linejoin="round" opacity="1" fill="none"></path><path d="M333.51 513.93L312.29 520.87" stroke="#000000" stroke-width="4" stroke-linecap="round" stroke-linejoin="round" opacity="1" fill="none"></path></g><g><path d="M1179.98 249.9L1192.9 247.63C1198.62 246.63 1204.02 250.42 1205.02 256.14L1205.17 256.47 1210.58 287.87" stroke="#413425" stroke-width="4" stroke-linecap="round" stroke-linejoin="round" opacity="1" fill="none"></path><path d="M1197.52 335.66L1182.04 247.22 1083.19 264.52 1103.6 284.22 1115.15 350.1 1197.52 335.66Z" fill="#dda15e" opacity="1" stroke-width="4" stroke="none"></path><path d="M1139.79 345.78L1128.26 279.87 1107.83 260.21 1083.19 264.52 1103.6 284.22 1115.15 350.1 1139.79 345.78Z" fill="#413425" opacity="0.25" stroke-width="4" stroke="none"></path><path d="M1153.45 283.05L1138.71 285.64" stroke="#413425" stroke-width="4" stroke-linecap="round" stroke-linejoin="round" opacity="1" fill="none"></path><path d="M1156.41 299.95L1141.68 302.54" stroke="#413425" stroke-width="4" stroke-linecap="round" stroke-linejoin="round" opacity="1" fill="none"></path><path d="M1159.38 316.86L1144.64 319.44" stroke="#413425" stroke-width="4" stroke-linecap="round" stroke-linejoin="round" opacity="1" fill="none"></path></g><g><path d="M1466.95 638.71L1388.51 609.69 1415.32 688.89 1425.57 665.72 1443.77 684.39 1461.87 666.87 1443.67 648.19 1466.95 638.71Z" fill="#000000" opacity="0.2" stroke-width="4" stroke="none"></path><path d="M1471.93 617.93L1393.49 588.91 1420.3 668.11 1430.55 644.93 1448.75 663.61 1466.85 646.08 1448.65 627.41 1471.93 617.93Z" fill="#0b412d" opacity="1" stroke-width="4" stroke="none"></path></g><g><path d="M934.46 671.31C924.47 661.78 905.7 645.58 898.88 645.58 896.77 645.58 895.25 646.26 894.49 647.7 891.69 652.24 896.08 662.76 899.11 668.66L899.19 668.89 904.11 680.7C904.26 681.08 904.64 681.23 904.94 681.45 906.68 682.74 912.81 687.74 913.42 693.41 913.87 697.5 911.68 699.85 910.46 701.21 909.86 701.89 909.33 702.12 909.71 702.95 910.77 705.3 912.89 710.82 910.69 714.45 908.88 717.48 906.07 717.56 904.26 717.56 903.73 717.56 903.35 717.63 903.27 717.63L902.97 717.71C902.97 717.78 907.36 724.82 904.71 730.2 903.73 732.32 901.99 732.92 900.32 733.45 899.11 733.83 896.84 734.13 897.37 735.27 898.51 737.77 899.87 741.63 899.49 742.84 899.04 744.2 897.98 745.26 896.77 746.09 895.86 746.7 896.01 747.98 896.54 748.97 901.23 757.9 911.3 775.61 920.83 790.97 921.52 792.11 923.03 792.34 924.09 791.58L985.09 746.09C986 745.41 986.3 744.05 985.62 743.06 968.44 716.95 943.99 680.39 934.46 671.31Z" fill="#8a5f51" opacity="1" stroke-width="4" stroke="none"></path><path d="M904.41 681.08C904.41 681.08 914.32 687.05 915.84 688.49 916.82 689.4 917.28 689.78 917.28 690.08 916.14 715.21 926.13 729.89 930.82 737.01 931.43 737.92 931.96 738.75 932.41 739.43 932.64 739.88 932.26 740.34 931.81 740.19 920.08 734.96 914.7 729.89 912.89 727.85 912.58 727.55 912.05 727.7 912.05 728.08 911.9 729.06 911.52 730.65 910.54 732.32 908.8 735.27 906.15 736.55 905.09 737.01 904.86 737.08 904.71 737.39 904.79 737.61 905.47 739.88 905.09 742.31 903.65 744.2 902.29 745.86 900.02 747.07 897.07 747.07 896.84 747.07 896.54 747.07 896.39 747.07H896.46C898.43 746.39 899.94 744.88 900.55 742.99 901.08 741.32 901.23 738.75 899.11 735.49 898.88 735.19 899.11 734.81 899.41 734.74 901 734.43 904.64 733.45 906.07 730.42 908.57 724.97 904.11 718.09 904.11 718.01 904.11 718.01 904.11 718.01 904.18 718.01 904.26 718.01 904.71 718.01 905.17 718.01 906.91 718.01 910.09 717.63 911.98 714.53 914.55 710.22 911.98 704.61 911.07 702.95 910.92 702.72 911.07 702.42 911.3 702.27 912.51 701.74 915.46 699.69 914.25 693.56 913.11 687.51 904.56 681.15 904.41 681.08Z" fill="#222222" opacity="0.25" stroke-width="4" stroke="none"></path><path d="M821.53 751.01C821.53 743.82 824.64 735.72 830.69 731.86L985.09 633.17C990.62 629.61 997.96 631.12 1001.74 636.5 1005.53 642.02 1004.24 649.59 998.72 653.45L990.47 659.28" stroke="#000000" stroke-width="4" stroke-linecap="round" stroke-linejoin="round" opacity="1" fill="none"></path><path d="M893.21 747.23C892.91 747.23 892.68 747.23 892.38 747.15 888.67 746.77 877.24 745.33 869.82 736.71 867.02 733.53 865.73 730.27 866.11 727.4 866.64 723.61 869.59 721.49 869.75 721.49 865.43 716.95 865.73 712.49 866.87 709.53 868.08 706.35 870.27 704.24 870.27 704.24 868.76 700.3 868.76 696.89 870.35 694.09 872.92 689.4 878.98 688.19 879.05 688.19 878.98 688.11 873.83 679.64 880.04 671.92 882.16 669.34 886.85 667.68 892.6 667.68 894.87 667.68 896.99 667.75 899.11 668.28L904.41 681.08C904.41 681.08 912.74 686.52 913.49 693.19 914.17 699.32 909.86 702.12 909.86 702.12 909.86 702.12 914.25 709.23 911.07 714.38 909.25 717.41 906.07 717.86 904.26 717.86 903.58 717.86 903.12 717.78 903.12 717.78 903.2 717.78 908.04 724.44 905.24 730.2 903.2 734.13 897.83 734.59 897.83 734.59 900.4 738.22 900.32 741.02 899.72 742.68 899.11 744.58 897.52 746.17 895.48 746.92 894.57 747.15 893.89 747.23 893.21 747.23Z" fill="#8a5f51" opacity="1" stroke-width="4" stroke="none"></path><path d="M895.1 747C899.04 746.17 902.44 740.72 897.83 734.59 897.83 734.59 903.58 733.91 905.39 729.89 907.89 723.99 903.12 717.78 903.12 717.78 903.12 717.78 908.65 718.69 911.22 714.15 914.17 708.85 909.86 702.12 909.86 702.12 909.86 702.12 914.1 699.54 913.49 693.34 912.66 686.07 904.41 681.08 904.41 681.08" stroke="#000000" stroke-width="4" stroke-linecap="round" opacity="1" fill="none"></path><path d="M869.75 721.49C874.89 724.67 884.2 729.36 897.83 734.59" stroke="#000000" stroke-width="4" stroke-linecap="round" opacity="1" fill="none"></path><path d="M870.27 704.24C876.25 707.87 889.42 714.76 903.12 717.78" stroke="#000000" stroke-width="4" stroke-linecap="round" opacity="1" fill="none"></path><path d="M878.45 688.04C888.14 694.62 898.51 699.09 909.86 702.12" stroke="#000000" stroke-width="4" stroke-linecap="round" opacity="1" fill="none"></path><path d="M773.92 799.37C754.17 799.37 741.91 785.68 735.1 774.17 727.76 761.76 725.03 749.12 724.96 748.97L822.67 749.12C822.67 749.27 820.02 761.76 812.68 774.17 805.94 785.68 793.68 799.37 773.92 799.37Z" fill="#0b412d" opacity="1" stroke-width="4" stroke="none"></path><path d="M773.92 770.24C754.17 770.24 741.91 764.48 735.1 759.64 728.44 754.95 726.77 750.03 726.47 749.12 726.47 749.04 726.47 748.97 726.62 748.97L822.82 749.04C822.74 749.27 811.69 770.24 773.92 770.24Z" fill="#000000" opacity="1" stroke-width="4" stroke="none"></path><path d="M898.51 667L904.26 680.55" stroke="#000000" stroke-width="4" stroke-linecap="round" opacity="1" fill="none"></path><path d="M932.41 739.43C925.45 730.35 915.99 712.26 917.28 690.08" stroke="#000000" stroke-width="4" stroke-linecap="round" opacity="1" fill="none"></path><path d="M1136.77 693.56L1137.83 680.55C1137.83 680.55 1123.22 685.39 1108.01 678.96 1094.99 671.31 1091.58 658.29 1096.2 635.28 1097.64 628.09 1098.32 619.92 1098.93 611.52 1099.46 604.63 1100.06 597.52 1101.05 590.78 1102.94 578.75 1106.04 578.22 1110.88 572.31 1119.74 561.26 1137.38 553.85 1154.71 553.85 1167.73 553.85 1180.29 557.86 1190.81 565.58 1220.71 587.45 1217.15 624.92 1216.17 636.8 1216.24 636.72 1210.79 695.61 1210.79 695.61L1136.77 693.56Z" fill="#8a5f51" opacity="1" stroke-width="4" stroke="none"></path><path d="M1137.98 680.39C1138.81 680.02 1150.24 675.55 1159.1 669.8 1159.17 669.72 1159.32 669.87 1159.25 669.95L1136.47 699.92C1136.39 700 1136.32 699.92 1136.32 699.85L1137.98 680.39C1137.91 680.39 1137.91 680.39 1137.98 680.39Z" fill="#222222" opacity="0.25" stroke-width="4" stroke="none"></path><path d="M1374.5 879.53C1370.95 854.1 1354.3 822.31 1340.9 800.06 1330.61 783.1 1320.77 769.02 1315.77 762.14 1303.21 744.5 1290.42 732.39 1276.72 723.99 1264.45 716.35 1251.21 712.03 1235.09 710.14 1210.49 706.28 1210.49 696.21 1210.49 691.52L1137.15 691.67 1135.48 705.52C1135.48 705.52 1134.35 705.52 1132.91 705.52 1126.1 705.52 1102.33 706.43 1081.37 719.15 1050.71 737.69 1005.3 773.26 1004.92 773.64 1004.85 773.49 996.67 760.47 986.08 744.05L921.21 792.26C949.29 836.69 968.67 851.9 979.87 856.9 984.71 859.09 990.69 860.23 997.28 860.23 1038.07 860.23 1096.58 817.92 1097.19 817.54L1108.61 883.46 1233.57 883.61 1254.61 829.65 1288.9 877.26C1288.75 877.26 1274.14 875.74 1248.18 873.93L1240.99 947.19C1260.06 951.73 1279.74 954.46 1299.42 955.44 1301.24 955.52 1303.05 955.52 1304.87 955.52 1328.79 955.52 1348.77 947.65 1361.18 933.42 1372.91 919.94 1377.53 901.25 1374.5 879.53Z" fill="#dda15e" opacity="1" stroke-width="4" stroke="none"></path><path d="M1212.08 570.27C1200.42 570.27 1189.52 565.73 1181.43 557.55 1164.47 540.6 1164.47 513.05 1181.43 496.1 1189.68 487.85 1200.57 483.38 1212.08 483.38 1223.58 483.38 1234.63 487.92 1242.73 496.1 1250.98 504.35 1255.45 515.24 1255.45 526.75 1255.45 538.4 1250.91 549.3 1242.73 557.4 1234.48 565.73 1223.58 570.27 1212.08 570.27Z" fill="#222222" opacity="1" stroke-width="4" stroke="none"></path><path d="M1255.75 595.32C1240.39 595.32 1194.82 569.66 1188.69 562.17 1188.31 561.57 1188.09 561.19 1188.09 560.88 1188.16 560.51 1188.77 560.28 1189.98 560.28 1199.97 560.28 1251.28 577.01 1259.76 588.81 1260.9 590.33 1261.2 591.69 1260.75 592.9 1260.14 594.49 1258.48 595.32 1255.75 595.32Z" fill="#0b412d" opacity="1" stroke-width="4" stroke="none"></path><path d="M1185.29 558.61C1179.08 558.61 1132.15 524.93 1126.32 510.48 1125.42 508.28 1125.49 506.54 1126.7 505.48 1127.38 504.88 1128.29 504.5 1129.43 504.5 1137.53 504.5 1154.56 520.62 1161.52 527.58 1173.55 539.54 1184.38 552.71 1185.74 557.02 1185.97 557.71 1185.97 558.16 1185.66 558.31 1185.74 558.54 1185.51 558.61 1185.29 558.61Z" fill="#0b412d" opacity="1" stroke-width="4" stroke="none"></path><path d="M1053.29 843.65L1111.04 785.45 1097.34 817.54C1097.11 817.62 1077.51 831.84 1053.29 843.65Z" fill="#232323" opacity="0.25" stroke-width="4" stroke="none"></path><path d="M1204.36 883.46L1239.7 809.21 1254.61 829.65 1233.73 883.54 1204.36 883.46Z" fill="#232323" opacity="0.25" stroke-width="4" stroke="none"></path><path d="M1114.82 928.95L1097.19 817.54C1097.19 817.24 1092.8 783.48 1125.95 769.86 1135.48 765.92 1145.47 763.95 1155.84 763.95 1167.8 763.95 1180.21 766.53 1192.7 771.9 1204.43 776.82 1214.05 785.15 1220.48 796.12 1226.91 807.02 1229.71 819.51 1228.28 832.07L1226.46 943.56 1114.82 928.95Z" fill="#606c38" opacity="1" stroke-width="4" stroke="none"></path><path d="M1309.34 753.66C1285.42 724.9 1255.14 717.41 1210.94 714.23 1202.24 713.62 1194.82 711.5 1188.92 707.79 1181.27 703.1 1176.35 695.08 1175.67 686.15L1173.1 654.58C1173.18 654.58 1178.32 652.16 1183.92 648.3 1189.15 644.67 1195.73 638.92 1198.23 631.95 1199.74 627.64 1199.51 623.25 1197.4 619.01 1194.37 613.03 1189.75 610.01 1183.7 610.01 1172.34 610.01 1159.78 620.45 1159.63 620.53 1159.48 620.37 1143.88 619.84 1141.92 604.78 1141.92 604.78 1119.82 609.02 1121.78 590.86 1108.77 597.82 1100.97 590.4 1100.97 590.4 1102.48 579.65 1106.04 569.89 1110.73 563.91 1119.59 552.86 1137.22 545.44 1154.56 545.44 1167.57 545.44 1180.14 549.46 1190.66 557.18 1220.56 579.05 1217.76 614.92 1216.77 626.73 1216.85 626.66 1225.17 623.63 1236.45 623.63 1250.45 623.63 1262.41 628.25 1271.95 637.25 1292.69 657.01 1286.71 688.64 1286.56 688.95 1286.86 688.95 1312.14 691.52 1318.65 717.71 1323.72 738.9 1309.34 753.66 1309.34 753.66Z" fill="#222222" opacity="1" stroke-width="4" stroke="none"></path><path d="M1138.13 680.39C1143.28 678.65 1148.35 676.61 1153.27 674.41" stroke="#000000" stroke-width="4" stroke-linecap="round" opacity="1" fill="none"></path><path d="M1281.11 707.87C1283.98 701.59 1285.04 694.7 1286.56 688.95 1285.19 694.85 1283.83 701.44 1281.11 707.87Z" stroke="#696969" stroke-width="4" stroke-linecap="round" stroke-linejoin="round" opacity="1" fill="none"></path><path d="M1215.18 644.22H1215.11L1216.77 627.26V626.73L1215.18 644.22Z" stroke="#696969" stroke-width="4" stroke-linecap="round" stroke-linejoin="round" opacity="1" fill="none"></path><path d="M1175.29 667C1181.61 667 1186.72 661.88 1186.72 655.57 1186.72 649.26 1181.61 644.14 1175.29 644.14 1168.98 644.14 1163.87 649.26 1163.87 655.57 1163.87 661.88 1168.98 667 1175.29 667Z" fill="#ffffff" opacity="1" stroke-width="4" stroke="none"></path><path d="M1171.51 633.39L1182.94 626.58" stroke="#000000" stroke-width="4" stroke-linecap="round" opacity="1" fill="none"></path><path d="M1119.06 652.01C1121.78 652.24 1125.04 651.41 1127.01 648.08" stroke="#000000" stroke-width="4" stroke-linecap="round" opacity="1" fill="none"></path><path d="M1134.27 628.47C1136.16 628.47 1137.68 626.94 1137.68 625.07 1137.68 623.18 1136.16 621.66 1134.27 621.66 1132.4 621.66 1130.87 623.18 1130.87 625.07 1130.87 626.94 1132.4 628.47 1134.27 628.47Z" fill="#222222" opacity="1" stroke-width="4" stroke="none"></path><path d="M1108.31 624.01C1110.2 624.01 1111.72 622.49 1111.72 620.6 1111.72 618.72 1110.2 617.2 1108.31 617.2 1106.43 617.2 1104.91 618.72 1104.91 620.6 1104.91 622.49 1106.43 624.01 1108.31 624.01Z" fill="#222222" opacity="1" stroke-width="4" stroke="none"></path><path d="M1116.18 632.71C1115.35 634.98 1114.67 637.86 1115.05 638.69 1115.88 640.58 1118.15 641.26 1118.15 641.26" stroke="#000000" stroke-width="4" stroke-linecap="round" opacity="1" fill="none"></path><path d="M1098.85 710.67L1119.66 777.05" stroke="#000000" stroke-width="4" stroke-linecap="round" opacity="1" fill="none"></path><path d="M1135.48 705.52L1134.35 719.75" stroke="#010100" stroke-width="4" stroke-linecap="round" opacity="1" fill="none"></path><path d="M1004.92 773.64L1019.61 794.38" stroke="#010100" stroke-width="4" stroke-linecap="round" opacity="1" fill="none"></path><path d="M1234.56 717.18L1200.65 781.51" stroke="#000000" stroke-width="4" stroke-linecap="round" opacity="1" fill="none"></path><path d="M1107.86 883.31H1235.09" stroke="#000000" stroke-width="4" stroke-linecap="round" opacity="1" fill="none"></path><path d="M1127.99 825.41H1182.48" stroke="#000000" stroke-width="4" stroke-linecap="round" opacity="1" fill="none"></path><path d="M1016.43 933.19C991.6 929.56 970.48 913.74 959.96 890.96L1112.17 913.44 1107.33 946.66 1016.43 933.19Z" fill="#ffffff" opacity="1" stroke-width="4" stroke="none"></path><path d="M1020.74 910.64L1086.59 920.47" stroke="#010101" stroke-width="4" stroke-linecap="round" stroke-linejoin="round" opacity="1" fill="none"></path><path d="M1209.88 954.31C1209.28 954.31 1208.75 954.23 1208.14 954.16L1108.39 939.47 1112.17 913.51 1211.93 928.19C1215.18 928.65 1218.06 930.39 1220.03 933.04 1222.15 935.84 1222.98 939.4 1222.45 942.95 1221.54 949.39 1216.09 954.31 1209.88 954.31Z" fill="#232323" opacity="1" stroke-width="4" stroke="none"></path><path d="M1154.25 968.31C1150.32 968.31 1147.21 966.49 1145.02 963.01 1145.02 963.01 1141.01 965.28 1136.16 965.28 1132.53 965.28 1129.35 963.99 1126.85 961.5 1126.85 961.5 1123.52 963.01 1119.82 963.01 1115.73 963.01 1112.7 961.19 1110.88 957.71 1106.34 948.63 1117.62 917.6 1148.8 896.41 1169.24 882.48 1190.21 873.17 1226.01 873.17 1231 873.17 1236.45 873.4 1241.98 873.7 1242.96 873.78 1247.65 874.08 1248.79 874.15L1241.67 947.27C1223.36 943.03 1210.94 938.94 1210.94 938.94 1210.94 938.94 1203.9 947.34 1187.48 951.05 1187.48 951.13 1183.7 960.97 1177.64 964.68 1174.46 966.64 1171.06 967.78 1167.95 967.78 1165.76 967.78 1163.87 967.17 1162.5 966.19 1162.43 966.04 1158.57 968.31 1154.25 968.31Z" fill="#8a5f51" opacity="1" stroke-width="4" stroke="none"></path><path d="M1254.61 829.65L1244.4 815.57" stroke="#010100" stroke-width="4" stroke-linecap="round" opacity="1" fill="none"></path><path d="M1315.77 879.38L1288.9 877.26" stroke="#010100" stroke-width="4" stroke-linecap="round" opacity="1" fill="none"></path><path d="M1126.48 961.04C1127.99 951.96 1133.29 937.58 1140.1 928.5" stroke="#000000" stroke-width="4" stroke-linecap="round" opacity="1" fill="none"></path><path d="M1144.64 962.48C1146.91 954.16 1151.45 942.8 1156.75 934.4" stroke="#000000" stroke-width="4" stroke-linecap="round" opacity="1" fill="none"></path><path d="M1162.05 965.51C1163.56 960.97 1167.35 950.37 1172.65 942.05" stroke="#000000" stroke-width="4" stroke-linecap="round" opacity="1" fill="none"></path><path d="M1288.9 877.26L1276.79 860.53 1320.99 879.6V879.75L1288.9 877.26Z" fill="#232323" opacity="0.25" stroke-width="4" stroke="none"></path><path d="M1004.92 773.64C1005 773.57 1011.58 768.42 1021.35 761.08L1022.18 798.09 1004.92 773.64Z" fill="#232323" opacity="0.25" stroke-width="4" stroke="none"></path></g></svg>