<svg width="97" height="92" viewBox="0 0 97 92" fill="none" xmlns="http://www.w3.org/2000/svg">
<rect width="94" height="92" fill="white"/>
<path d="M88.7272 9.00594C88.7272 9.00594 88.4041 8.42375 87.0455 8.66094C85.5474 8.91969 82.3382 11.2988 81.3174 17.1709C80.2966 23.0431 79.2905 41.1916 79.9882 42.3775C81.2733 44.5841 83.9097 46.345 83.9685 47.5884C84.0125 48.5228 83.7188 70.1284 83.5132 71.6738C83.3075 73.2119 82.1766 77.4166 82.0297 78.4875C81.8902 79.5369 82.5217 80.3563 83.19 80.4138C84.2842 80.5144 87.5742 80.5431 87.5742 80.5431L88.7272 9.00594ZM15.8919 35.1828C15.8919 35.1828 15.5614 20.7431 15.5321 20.0675C15.5027 19.5141 15.1649 18.7738 14.291 18.8528C13.7842 18.9031 13.6153 19.4422 13.6153 19.9525C13.6153 20.8366 13.5199 31.9772 13.5346 32.8109C13.5492 34.0184 12.1466 33.7525 12.176 32.8684C12.2053 31.9844 12.1466 20.6353 12.1025 19.8663C12.0658 19.2841 11.7647 18.8744 11.2727 18.8744C10.788 18.8744 10.3841 19.2122 10.3033 19.8375C10.1197 21.1672 10.1638 32.1425 10.1344 32.9475C10.0977 33.9394 8.88597 33.9034 8.88597 32.8397C8.88597 31.7759 8.85659 20.6856 8.85659 19.8016C8.85659 19.3344 8.70237 18.7666 8.05612 18.7953C7.4319 18.8241 7.24097 19.3416 7.21159 19.7297C7.15284 20.5563 6.71956 31.9269 6.68284 32.6672C6.6094 33.8316 5.383 33.8747 5.383 32.6097C5.383 31.3375 5.68409 20.815 5.71347 19.9309C5.7355 19.3775 5.51518 18.745 4.92768 18.7738C4.34018 18.8025 4.00237 19.0756 3.77472 19.9597C3.53972 20.8869 3.29003 26.2631 3.033 29.3681C2.90081 30.9925 2.12237 37.9069 2.95956 39.7253C4.17128 42.3416 6.54331 42.8159 6.54331 42.8159C6.54331 42.8159 6.12472 68.4753 5.88972 70.1572C5.5519 72.5866 4.15659 76.0509 4.30347 77.8191C4.38425 78.7966 5.01581 79.35 6.05862 79.4003C7.10143 79.4506 9.18706 79.7166 9.77456 79.5584C10.0316 79.4938 10.1344 63.6094 10.1344 63.6094L10.3914 38.6544L15.8919 35.1828Z" fill="#E9EDC9"/>
<path d="M4.49438 36.6778L15.8478 38.0075C15.8478 38.0075 15.8184 40.099 14.8858 41.2634C13.7108 42.7225 12.3522 42.8878 12.3522 42.8878C12.3522 42.8878 12.198 69.4312 12.4403 71.2856C12.69 73.1328 14.2909 77.6681 13.7769 78.6384C13.3216 79.4937 12.2127 79.7094 9.81125 79.6303C7.285 79.5512 6.56532 79.6087 6.46985 77.934C6.37438 76.2594 7.90922 73.1831 7.98266 71.0484C8.0561 68.9137 8.32782 41.7881 8.32782 41.7881C8.32782 41.7881 5.58125 41.4719 4.56047 39.1719C3.77469 37.375 4.49438 36.6778 4.49438 36.6778ZM86.9647 44.7062L83.2708 43.9228C83.2708 43.9228 85.753 45.964 85.797 47.5381C85.8484 49.1122 85.9366 71.3359 85.6942 72.6728C85.4519 74.0097 83.5058 79.1128 84.3944 80.0328C85.0039 80.6581 87.0087 80.5287 88.125 80.5287C89.2413 80.5287 90.1666 80.4784 90.6586 79.8172C91.1433 79.1487 90.923 77.3662 90.6659 76.0294C90.3722 74.4769 90.027 73.0753 90.027 72.3925C90.027 71.1562 89.1972 42.3344 89.1972 42.3344L86.9647 44.7062Z" fill="#AFB98F"/>
<path d="M88.338 8.86217C87.3172 8.89092 84.8644 9.94749 83.5572 14.5906C82.5364 18.2131 82.2941 22.5615 82.0444 30.2737C81.7433 39.5528 82.1398 42.4709 82.4336 42.7081C82.7273 42.9453 87.3025 44.8069 87.3025 44.8069L89.1972 42.3272C89.1972 42.3272 88.9034 12.269 88.9034 11.0328C88.9034 9.79655 89.087 8.84061 88.338 8.86217ZM4.17858 35.2547C4.17858 35.2547 4.14921 37.3966 4.17858 37.5978C4.20796 37.7991 8.83452 38.18 10.6558 38.2087C12.477 38.2375 15.8625 38.029 15.8625 38.029C15.8625 38.029 15.9212 37.3103 15.9212 36.4837C15.9212 35.765 15.8992 35.1684 15.8992 35.1684L4.17858 35.2547Z" fill="#AFB98F"/>
<path d="M5.22143 39.6175C6.69018 39.9553 9.88471 38.6328 9.41471 38.1153C8.908 37.5547 4.23737 37.1019 4.17862 37.5331C4.11987 37.9572 4.443 39.4378 5.22143 39.6175ZM12.1686 77.7328C12.5505 77.0428 12.2567 74.9656 12.0805 73.8731C11.9042 72.7806 11.75 71.9325 11.2727 71.9972C10.8761 72.0547 10.8761 72.4859 10.8761 73.3988C10.8761 74.3044 10.9496 75.7778 10.5971 76.1084C10.2446 76.4391 8.9594 77.1434 9.09159 77.8262C9.22378 78.5019 10.1344 78.4731 10.8027 78.4444C11.2213 78.4228 11.8602 78.2934 12.1686 77.7328ZM88.9475 74.7644C88.5142 74.7356 88.4849 75.4831 88.4849 76.2809C88.4849 77.0716 88.2425 77.6609 87.8827 77.8981C87.5228 78.1353 86.5755 78.6312 86.6342 79.0912C86.693 79.5441 87.163 79.6519 88.4996 79.5944C89.8361 79.5369 89.8067 78.6097 89.7627 77.6681C89.7186 76.7266 89.5791 74.8075 88.9475 74.7644ZM82.4263 42.4566C82.0664 42.6075 83.168 43.9444 84.4164 44.9937C85.7089 46.0791 86.2524 46.4169 87.5742 46.345C88.8961 46.2731 89.5717 42.7584 88.7492 42.4494C87.9194 42.1403 87.6844 43.4269 86.6122 43.6066C85.5474 43.7934 83.0872 42.1762 82.4263 42.4566Z" fill="#FDFDFD"/>
<path d="M19.8208 36.3113L74.9503 34.5144C74.9503 34.5144 83.7848 50.3413 71.8659 66.2975C60.2261 81.8872 35.764 80.0903 24.8806 67.311C12.6826 52.9791 19.8208 36.3113 19.8208 36.3113Z" fill="#BC6C25"/>
<path d="M46.9633 17.1709C29.3676 17.2931 18.844 29.1094 18.587 44.6919C18.33 60.4037 30.6528 74.9728 48.3733 74.9728C66.8648 74.9728 77.2636 60.2744 77.3884 44.8141C77.5059 31.1075 65.1905 17.0416 46.9633 17.1709Z" fill="#F8C89D"/>
<path d="M27.0764 45.1662L28.7288 40.6165C28.7288 40.6165 33.2599 27.4203 47.6169 27.4922C60.9972 27.564 65.9542 39.9984 65.9542 39.9984L67.4744 44.8212L68.2822 42.1043L66.3728 35.6212L59.9103 28.2684L49.0195 24.9622L39.928 26.2128L32.4888 30.8343L27.5317 38.3381L27.0764 45.1662Z" fill="#BC6C25"/>
<path d="M47.4847 66.4557C35.7274 66.4557 26.6872 57.9313 25.8867 46.0072C25.5049 40.3219 27.5244 34.881 31.5781 30.6978C35.698 26.4285 41.4849 24.0063 47.4847 24.071C53.793 24.1285 59.2127 26.3566 63.171 30.511C67.21 34.7516 69.3103 40.5878 68.9358 46.5103C68.2235 57.8235 59.4256 66.2041 48.0135 66.4557C47.8299 66.4485 47.6536 66.4557 47.4847 66.4557ZM47.2864 25.8607C41.8741 25.8607 36.638 28.0672 32.9074 31.9269C29.2135 35.7507 27.3702 40.71 27.7153 45.885C28.457 56.9897 36.9538 64.8744 47.962 64.6444C58.3975 64.4216 66.4389 56.7453 67.0925 46.3882C67.4303 41.0335 65.4549 35.5494 61.8197 31.7185C58.2139 27.9307 53.2495 25.9038 47.4627 25.8535C47.4039 25.8607 47.3452 25.8607 47.2864 25.8607Z" fill="white"/>
<path d="M21.442 38.0148C21.442 38.9958 21.2008 39.9256 20.7185 40.8044C20.2581 41.6627 19.6113 42.4393 18.7782 43.1341C17.9451 43.8085 16.9694 44.3808 15.8513 44.8508C14.7331 45.3208 13.5163 45.6376 12.2009 45.8011C12.5298 46.7207 12.9244 47.671 13.3848 48.6519C13.8671 49.6124 14.3824 50.5423 14.9305 51.4415C15.4786 52.3407 16.0486 53.1684 16.6406 53.9245C17.2325 54.6807 17.8135 55.304 18.3835 55.7944C18.2739 55.9988 18.1095 56.2032 17.8903 56.4075C17.6929 56.6119 17.4518 56.7958 17.1667 56.9593C16.9037 57.1432 16.6186 57.2863 16.3117 57.3885C16.0267 57.5111 15.7526 57.5724 15.4895 57.5724C15.0072 57.5724 14.5468 57.3578 14.1083 56.9287C13.6698 56.4995 13.2204 55.8251 12.76 54.9055C12.3215 53.9654 11.8501 52.7596 11.3458 51.2882C10.8635 49.7964 10.3264 48.0082 9.7344 45.9237C9.49323 45.9237 9.25207 45.9237 9.0109 45.9237C8.76973 45.9237 8.58337 45.9033 8.45183 45.8624C8.29836 45.7806 8.13393 45.6376 7.95853 45.4332C7.36657 46.6185 6.84039 47.7323 6.37998 48.7746C5.91957 49.8168 5.50301 50.8284 5.13029 51.8094C4.7795 52.7699 4.4616 53.7099 4.17658 54.6296C3.91349 55.5288 3.68329 56.4484 3.48597 57.3885C2.74054 57.225 2.09377 56.9287 1.54567 56.4995C0.997557 56.0703 0.482335 55.4675 0 54.6909C0.0876973 54.5069 0.175395 54.3332 0.263092 54.1697C0.372714 53.9858 0.50426 53.7406 0.65773 53.434C0.8112 53.1071 0.997557 52.6983 1.2168 52.2079C1.45797 51.7174 1.76491 51.0634 2.13762 50.246C2.53226 49.4285 2.99267 48.4271 3.51885 47.2418C4.06696 46.0565 4.72469 44.6158 5.49204 42.9196C5.84283 42.1634 6.13881 41.4992 6.37998 40.927C6.64307 40.3548 6.87328 39.8132 7.0706 39.3023C7.26791 38.771 7.44331 38.2499 7.59678 37.7389C7.77217 37.2076 7.94757 36.6047 8.12296 35.9303C7.11445 36.2573 6.1717 36.6252 5.29473 37.0339C4.43968 37.4222 3.72714 37.8411 3.1571 38.2907C2.95978 38.1681 2.7515 37.9842 2.53226 37.7389C2.33494 37.4937 2.14858 37.228 1.97319 36.9419C1.79779 36.6354 1.64432 36.3288 1.51278 36.0223C1.38123 35.7157 1.3045 35.4399 1.28257 35.1946C1.9403 34.7859 2.74054 34.4078 3.68329 34.0604C4.64796 33.713 5.66744 33.4167 6.74173 33.1714C7.81602 32.9057 8.91224 32.7014 10.0304 32.5583C11.1485 32.4153 12.1899 32.3438 13.1546 32.3438C15.7855 32.3438 17.8245 32.8547 19.2715 33.8765C20.7185 34.8779 21.442 36.2573 21.442 38.0148ZM13.4177 35.4399C13.2642 35.6238 13.0231 35.9916 12.6942 36.5434C12.3653 37.0952 11.9816 37.7594 11.5432 38.536C11.1266 39.2921 10.6771 40.1198 10.1948 41.019C9.7344 41.9182 9.28495 42.8072 8.84647 43.6859C10.4908 43.6859 12.0036 43.5429 13.3848 43.2568C14.766 42.9706 15.9609 42.5721 16.9694 42.0612C17.9779 41.5299 18.7563 40.9168 19.3044 40.222C19.8744 39.5067 20.1594 38.7199 20.1594 37.8616C20.1594 36.8397 19.7648 36.0632 18.9755 35.5318C18.1862 34.98 16.9694 34.7041 15.3251 34.7041C14.9524 34.7041 14.5797 34.7246 14.207 34.7655C13.8343 34.7859 13.4396 34.8165 13.0231 34.8574L13.4177 35.4399ZM32.078 42.2145C31.9903 43.4816 31.7492 44.5749 31.3545 45.4945C30.9599 46.3937 30.3899 47.1907 29.6444 47.8856C28.9209 48.56 28.033 49.1731 26.9806 49.7248C25.9283 50.2766 24.7004 50.808 23.2973 51.3189C23.2973 51.4415 23.2863 51.5743 23.2644 51.7174C23.2644 51.84 23.2644 51.9728 23.2644 52.1159C23.2644 52.3816 23.2863 52.6575 23.3301 52.9436C23.374 53.2297 23.4507 53.4953 23.5603 53.7406C23.67 53.9858 23.8234 54.1902 24.0208 54.3537C24.2181 54.4967 24.4702 54.5683 24.7771 54.5683C25.3691 54.5683 25.9502 54.4456 26.5202 54.2004C27.0902 53.9552 27.6274 53.6588 28.1317 53.3114C28.6578 52.9436 29.1402 52.5553 29.5787 52.1466C30.0391 51.7174 30.4447 51.3291 30.7955 50.9817C31.0147 51.1656 31.2011 51.3393 31.3545 51.5028C30.3679 52.729 29.2827 53.7508 28.0988 54.5683C26.9368 55.3653 25.8295 55.8762 24.7771 56.101C23.2644 55.9375 22.0805 55.4266 21.2254 54.5683C20.3923 53.6895 19.9757 52.637 19.9757 51.4108C19.9757 50.573 20.0963 49.7248 20.3375 48.8665C20.6006 47.9878 20.9514 47.1499 21.3898 46.3529C21.8503 45.5354 22.3764 44.769 22.9684 44.0538C23.5823 43.3385 24.229 42.7152 24.9087 42.1838C25.6103 41.6525 26.3229 41.2336 27.0464 40.927C27.7918 40.6205 28.5263 40.4672 29.2498 40.4672C30.2583 40.5898 31.2011 41.1722 32.078 42.2145ZM29.8089 43.2261C29.2169 43.3078 28.603 43.5326 27.9672 43.9005C27.3314 44.2683 26.7285 44.7588 26.1585 45.3719C25.6103 45.985 25.106 46.7003 24.6456 47.5177C24.1852 48.3352 23.8234 49.2139 23.5603 50.154C25.3143 49.3366 26.7723 48.3352 27.9343 47.1499C29.0963 45.9441 29.7212 44.6362 29.8089 43.2261ZM33.7977 49.5103C33.7977 48.3454 34.0499 47.2214 34.5541 46.1383C35.0803 45.0347 35.7599 44.064 36.5931 43.2261C37.4481 42.3678 38.4128 41.6832 39.4871 41.1722C40.5833 40.6409 41.7124 40.3752 42.8744 40.3752C44.0145 40.3752 44.8914 40.6409 45.5053 41.1722C46.1192 41.7036 46.4261 42.4597 46.4261 43.4407C46.4261 43.9107 46.3494 44.3705 46.1959 44.8201C46.0644 45.2493 45.878 45.6376 45.6369 45.985C45.4176 46.3324 45.1545 46.6185 44.8476 46.8433C44.5406 47.0477 44.2337 47.1499 43.9268 47.1499C43.6637 47.1499 43.3896 47.0783 43.1046 46.9353C42.8415 46.7718 42.6223 46.5674 42.4469 46.3222C43.9158 45.0756 44.6503 43.9414 44.6503 42.9196C44.6503 42.3269 44.3981 42.0306 43.8939 42.0306C43.4554 42.0306 42.9073 42.2247 42.2496 42.613C41.5918 43.0013 40.956 43.5122 40.3421 44.1457C39.3994 45.1267 38.6759 46.22 38.1716 47.4258C37.6893 48.6111 37.4481 49.8577 37.4481 51.1656C37.4481 52.821 37.8428 53.8121 38.632 54.1391C38.9609 54.0982 39.3446 54.0063 39.7831 53.8632C40.2215 53.7201 40.6929 53.5362 41.1972 53.3114C41.7014 53.0662 42.2167 52.7903 42.7428 52.4838C43.291 52.1772 43.8171 51.8502 44.3214 51.5028C44.4091 51.5641 44.4858 51.6561 44.5516 51.7787C44.6174 51.9013 44.6503 52.0137 44.6503 52.1159C44.2775 52.5451 43.85 52.964 43.3677 53.3727C42.8854 53.7815 42.3811 54.1595 41.8549 54.5069C41.3287 54.8339 40.8135 55.1098 40.3092 55.3346C39.8269 55.5799 39.3994 55.7331 39.0267 55.7944C38.3032 55.7331 37.6235 55.5185 36.9877 55.1507C36.3519 54.8033 35.7928 54.3435 35.3105 53.7712C34.8501 53.199 34.4774 52.5451 34.1924 51.8094C33.9293 51.0736 33.7977 50.3073 33.7977 49.5103ZM47.4431 52.8516C47.4431 52.6677 47.4541 52.4429 47.476 52.1772C47.5199 51.8911 47.5857 51.5232 47.6734 51.0736C47.7611 50.6036 47.8707 50.0416 48.0022 49.3877C48.1557 48.7337 48.342 47.9469 48.5613 47.0273C48.6051 46.8229 48.7038 46.4959 48.8573 46.0463C49.0107 45.5967 49.2081 45.1267 49.4492 44.6362C49.7123 44.1253 50.0193 43.6348 50.37 43.1648C50.7428 42.6948 51.1812 42.3473 51.6855 42.1225C52.0582 42.2043 52.5515 42.4189 53.1654 42.7663C53.7793 43.0933 54.3055 43.5531 54.7439 44.1457C54.2397 44.6771 53.8122 45.2084 53.4614 45.7398C53.1325 46.2711 52.8256 46.8229 52.5406 47.3951C52.2775 47.9673 52.0253 48.56 51.7842 49.1731C51.5649 49.7862 51.3128 50.4299 51.0278 51.1043C50.7866 51.6765 50.5674 52.2692 50.37 52.8823C50.1727 53.4749 50.0631 53.996 50.0412 54.4456C50.0412 54.8135 50.0302 55.0689 50.0083 55.212C50.0083 55.3755 49.9535 55.4572 49.8439 55.4572C49.7562 55.4572 49.5808 55.4061 49.3177 55.304C49.0546 55.2018 48.7805 55.0485 48.4955 54.8441C48.2324 54.6193 47.9913 54.3435 47.772 54.0165C47.5528 53.6895 47.4431 53.3012 47.4431 52.8516ZM53.7245 39.5476C53.7245 39.4249 53.7574 39.241 53.8231 38.9958C53.7135 38.8936 53.6148 38.7403 53.5271 38.536C53.4614 38.3316 53.4285 38.1477 53.4285 37.9842C53.4285 37.8003 53.4504 37.555 53.4943 37.2485C53.56 36.9215 53.6368 36.5741 53.7245 36.2062C53.8122 35.8384 53.9218 35.4603 54.0533 35.072C54.1849 34.6633 54.3164 34.2954 54.448 33.9684C54.7111 33.9684 55.029 34.04 55.4017 34.183C55.7963 34.3056 56.191 34.4793 56.5856 34.7041C56.9802 34.9085 57.342 35.1435 57.6708 35.4092C57.9997 35.6544 58.2518 35.8895 58.4272 36.1143C58.1861 36.3391 57.8682 36.6558 57.4735 37.0645C57.0789 37.4528 56.6952 37.8718 56.3225 38.3214C55.9498 38.7505 55.61 39.1593 55.303 39.5476C54.9961 39.9358 54.7988 40.2117 54.7111 40.3752C54.448 40.3344 54.2178 40.2322 54.0204 40.0687C53.8231 39.8848 53.7245 39.711 53.7245 39.5476ZM52.7815 65.0521C52.4745 64.9703 52.2991 64.6638 52.2553 64.1325C52.1676 63.8668 52.1018 63.55 52.0579 63.1822C52.036 62.8143 52.0251 62.3954 52.0251 61.9253C52.0251 61.4962 52.1018 60.9035 52.2553 60.1474C52.4087 59.4117 52.617 58.5738 52.8801 57.6337C53.1651 56.6936 53.505 55.682 53.8996 54.5989C54.2942 53.4954 54.7327 52.3816 55.215 51.2576C55.807 49.8475 56.3222 48.6315 56.7607 47.6097C57.1992 46.5674 57.561 45.6682 57.846 44.9121C58.1529 44.1559 58.3941 43.5326 58.5695 43.0422C58.7668 42.5517 58.9203 42.1328 59.0299 41.7853C59.1176 41.5401 59.2491 41.2438 59.4245 40.8964C59.5999 40.5489 59.7972 40.2015 60.0165 39.8541C60.2576 39.4862 60.4988 39.149 60.74 38.8425C60.9811 38.5155 61.2004 38.2703 61.3977 38.1068C62.1651 38.209 62.8886 38.3929 63.5682 38.6586C64.2479 38.9243 64.6644 39.1797 64.8179 39.4249C64.511 39.6906 64.1602 40.1096 63.7655 40.6818C63.3709 41.2336 62.9872 41.8466 62.6145 42.521C62.2418 43.175 61.902 43.8494 61.595 44.5442C61.2881 45.2391 61.0579 45.8522 60.9044 46.3835C61.1237 46.0361 61.4087 45.658 61.7595 45.2493C62.1102 44.8406 62.6474 44.2786 63.3709 43.5633C64.1821 42.7867 64.9385 42.1941 65.6401 41.7853C66.3636 41.3562 66.9884 41.1416 67.5146 41.1416C68.3477 41.1416 69.0274 41.3562 69.5536 41.7853C70.1017 42.2145 70.3757 42.7663 70.3757 43.4407C70.3757 44.9121 70.1126 46.3733 69.5864 47.8243C69.0603 49.2548 68.3039 50.5525 67.3173 51.7174C66.9446 52.167 66.5061 52.5962 66.0018 53.0049C65.4976 53.4136 64.9714 53.7815 64.4233 54.1084C63.8752 54.415 63.338 54.6602 62.8118 54.8441C62.2856 55.0281 61.8143 55.12 61.3977 55.12C61.0031 55.12 60.6523 55.0485 60.3453 54.9055C60.0603 54.742 59.863 54.5478 59.7534 54.323C60.6084 53.853 61.4416 53.199 62.2528 52.3611C63.064 51.5232 63.8094 50.5627 64.489 49.4796C65.1906 48.3761 65.7935 47.1907 66.2978 45.9237C66.824 44.6566 67.2186 43.3692 67.4817 42.0612C66.6486 42.47 65.8922 42.9196 65.2125 43.41C64.5548 43.8801 63.8971 44.5034 63.2394 45.2799C62.4501 46.1791 61.8252 46.9046 61.3648 47.4564C60.9044 48.0082 60.5207 48.4782 60.2138 48.8665C59.9288 49.2548 59.6876 49.6227 59.4903 49.9701C59.3149 50.2971 59.1176 50.7058 58.8983 51.1963C58.5914 51.8502 58.2296 52.7188 57.8131 53.8019C57.4184 54.8646 57.0019 56.0601 56.5634 57.3885C56.1468 58.7168 55.7193 60.1269 55.2808 61.6188C54.8643 63.1311 54.4587 64.6331 54.064 66.125C53.8229 66.0841 53.6146 65.9206 53.4392 65.6345C53.2638 65.4506 53.1322 65.3178 53.0445 65.236C52.9788 65.1543 52.8911 65.093 52.7815 65.0521ZM83.3346 42.2145C83.2469 43.4816 83.0058 44.5749 82.6111 45.4945C82.2165 46.3937 81.6465 47.1907 80.901 47.8856C80.1775 48.56 79.2896 49.1731 78.2372 49.7248C77.1849 50.2766 75.9571 50.808 74.5539 51.3189C74.5539 51.4415 74.543 51.5743 74.5211 51.7174C74.5211 51.84 74.5211 51.9728 74.5211 52.1159C74.5211 52.3816 74.543 52.6575 74.5868 52.9436C74.6307 53.2297 74.7074 53.4953 74.817 53.7406C74.9267 53.9858 75.0801 54.1902 75.2775 54.3537C75.4748 54.4967 75.7269 54.5683 76.0338 54.5683C76.6258 54.5683 77.2068 54.4456 77.7768 54.2004C78.3469 53.9552 78.884 53.6588 79.3883 53.3114C79.9144 52.9436 80.3968 52.5553 80.8353 52.1466C81.2957 51.7174 81.7013 51.3291 82.0521 50.9817C82.2713 51.1656 82.4577 51.3393 82.6111 51.5028C81.6245 52.729 80.5393 53.7508 79.3554 54.5683C78.1934 55.3653 77.0862 55.8762 76.0338 56.101C74.5211 55.9375 73.3371 55.4266 72.4821 54.5683C71.649 53.6895 71.2324 52.637 71.2324 51.4108C71.2324 50.573 71.353 49.7248 71.5942 48.8665C71.8573 47.9878 72.208 47.1499 72.6465 46.3529C73.1069 45.5354 73.6331 44.769 74.2251 44.0538C74.839 43.3385 75.4857 42.7152 76.1654 42.1838C76.867 41.6525 77.5795 41.2336 78.303 40.927C79.0484 40.6205 79.7829 40.4672 80.5064 40.4672C81.5149 40.5898 82.4577 41.1722 83.3346 42.2145ZM81.0655 43.2261C80.4735 43.3078 79.8596 43.5326 79.2238 43.9005C78.588 44.2683 77.9851 44.7588 77.4151 45.3719C76.867 45.985 76.3627 46.7003 75.9023 47.5177C75.4419 48.3352 75.0801 49.2139 74.817 50.154C76.571 49.3366 78.029 48.3352 79.1909 47.1499C80.3529 45.9441 80.9778 44.6362 81.0655 43.2261ZM96.2031 42.705C96.1812 43.0933 96.1045 43.502 95.9729 43.9312C95.8633 44.3399 95.7208 44.7179 95.5454 45.0654C95.37 45.3923 95.1836 45.6682 94.9863 45.893C94.789 46.1178 94.6027 46.2302 94.4273 46.2302C94.1861 46.2098 94.0436 46.0565 93.9997 45.7704C93.9997 45.7091 94.0217 45.6171 94.0655 45.4945C94.1313 45.3515 94.197 45.1982 94.2628 45.0347C94.3286 44.8712 94.3834 44.7077 94.4273 44.5442C94.493 44.3807 94.5259 44.2377 94.5259 44.1151C94.5259 43.829 94.4492 43.594 94.2957 43.41C94.1642 43.2057 93.9778 43.1035 93.7366 43.1035C92.8597 43.1035 92.191 43.6144 91.7306 44.6362C91.2702 45.658 91.0399 47.1601 91.0399 49.1424C91.0399 49.3468 91.0509 49.4694 91.0728 49.5103C91.5332 49.4898 91.9388 49.4796 92.2896 49.4796C92.6624 49.4592 93.0241 49.449 93.3749 49.449C93.3968 49.4898 93.4078 49.5716 93.4078 49.6942C93.4078 49.8781 93.3639 50.011 93.2762 50.0927C92.772 50.1949 92.3664 50.2868 92.0594 50.3686C91.7744 50.4299 91.5552 50.4912 91.4017 50.5525C91.2482 50.6138 91.1496 50.6854 91.1057 50.7671C91.0838 50.8284 91.0728 50.9204 91.0728 51.043C91.0728 51.2065 91.0728 51.37 91.0728 51.5335C91.0948 51.697 91.1057 51.9013 91.1057 52.1466C91.1057 53.8632 90.6015 55.2427 89.5929 56.2849C88.6063 57.3272 87.2251 57.93 85.4492 58.0935C85.1423 58.0731 84.8244 57.9913 84.4955 57.8483C84.1667 57.7052 83.8488 57.5213 83.5418 57.2965C83.2568 57.0717 83.0047 56.8163 82.7854 56.5301C82.5662 56.2645 82.4127 55.9886 82.325 55.7025C82.325 54.9259 82.5004 54.1902 82.8512 53.4954C83.202 52.7801 83.6734 52.1568 84.2653 51.6254C84.8792 51.0736 85.5917 50.6343 86.4029 50.3073C87.2361 49.9599 88.135 49.7555 89.0996 49.6942C89.0996 49.1833 89.0448 48.6826 88.9352 48.1921C88.8256 47.7017 88.705 47.2316 88.5735 46.782C88.4638 46.312 88.3542 45.8624 88.2446 45.4332C88.135 44.9836 88.0802 44.5442 88.0802 44.1151C88.0802 43.5633 88.2007 43.0217 88.4419 42.4904C88.6831 41.9386 89.001 41.4379 89.3956 40.9883C89.7903 40.5183 90.2507 40.1198 90.7769 39.7928C91.303 39.4658 91.8512 39.241 92.4212 39.1184C92.6624 39.1797 92.9803 39.3636 93.3749 39.6702C93.7915 39.9563 94.1971 40.2833 94.5917 40.6511C94.9863 41.019 95.3371 41.397 95.6441 41.7853C95.951 42.1532 96.1374 42.4597 96.2031 42.705ZM85.3506 56.6834C85.8768 56.4791 86.3701 56.1827 86.8305 55.7944C87.3128 55.4061 87.7294 54.9668 88.0802 54.4763C88.4309 53.9858 88.705 53.4647 88.9023 52.9129C89.1216 52.3611 89.2312 51.8196 89.2312 51.2882C88.7927 51.3495 88.3104 51.5437 87.7842 51.8707C87.258 52.1772 86.7647 52.5553 86.3043 53.0049C85.8439 53.434 85.4602 53.8836 85.1533 54.3537C84.8463 54.8237 84.6929 55.2324 84.6929 55.5799C84.6929 56.0295 84.9121 56.3973 85.3506 56.6834Z" fill="black"/>
</svg>
