<svg width="120" height="115" viewBox="0 0 120 115" fill="none" xmlns="http://www.w3.org/2000/svg">
<path fill-rule="evenodd" clip-rule="evenodd" d="M60 96.3137V5.83261e-08C61.6103 -0.000255188 63.2189 0.837245 64.0484 2.51125L77.5084 33.2113C78.0147 34.3666 78.8218 35.3649 79.8455 36.1019C80.8693 36.839 82.0721 37.2877 83.3284 37.4012L116.118 40.3413C119.828 40.8813 121.308 45.4313 118.618 48.0513L93.9184 68.8012C91.9184 70.4812 91.0084 73.1212 91.5584 75.6712L98.7384 109.281C99.0895 111.338 98.0426 113.125 96.472 114H92.1079L63.5584 97.2812C62.4794 96.648 61.2511 96.314 60 96.3137Z" fill="white"/>
<path fill-rule="evenodd" clip-rule="evenodd" d="M60 0C58.3878 0.000255549 56.7739 0.840255 55.9384 2.52125L42.4784 33.2212C41.9721 34.3766 41.165 35.3749 40.1412 36.1119C39.1175 36.849 37.9147 37.2977 36.6584 37.4113L3.86838 40.3512C0.168384 40.8913 -1.31162 45.4512 1.36838 48.0612L26.0784 68.7913C28.0784 70.4713 28.9784 73.1112 28.4384 75.6612L21.2584 109.271C20.6284 112.961 24.5084 115.771 27.8184 114.031L56.4384 97.2812C57.5178 96.6477 58.7468 96.3137 59.9984 96.3137C59.9989 96.3137 59.9995 96.3137 60 96.3137V0ZM92.1079 114L92.1784 114.041C93.6478 114.816 95.225 114.695 96.472 114H92.1079Z" fill="#FDD835"/>
</svg>
